#!OML:ASF E:\Mandelcareful walks\Project 1\Capture day 1\Session 1\Subject1.ASF
:FULLY-SPECIFIED
:DEGREES
379
root -4.445 16.5058 0.425057 144.153 80.73 134.794
lowerback 30.3314 1.66814 -2.23212
upperback 6.20926 2.05565 -0.237386
thorax -9.71868 1.27756 0.206964
lowerneck -25.4371 -0.186419 -2.51515
upperneck 14.074 1.55037 -4.16957
head 8.54945 0.137084 -0.803314
rclavicle 1.43125e-014 3.97569e-015
rhumerus -14.3862 22.3269 -88.4007
rradius 46.2012
rwrist -15.7262
rhand -14.7389 -33.5515
rfingers 7.12502
rthumb 11.4166 -63.2207
lclavicle 1.43125e-014 3.97569e-015
lhumerus -31.453 -15.1681 91.7481
lradius 36.796
lwrist 23.7591
lhand -22.801 -13.363
lfingers 7.12502
lthumb 3.63525 16.5857
rfemur -22.8786 -18.8403 8.43434
rtibia 38.7242
rfoot -19.3415 -9.42057
rtoes -1.27316
lfemur -24.0644 7.31117 -18.4892
ltibia 34.8421
lfoot -15.9061 5.75102
ltoes -9.03823
380
root -4.43252 16.5211 0.423376 142.065 79.7933 132.361
lowerback 29.2622 1.58282 -2.87654
upperback 5.95847 1.71183 -0.524136
thorax -9.47821 1.11768 0.408125
lowerneck -25.4866 0.0884923 -2.45499
upperneck 14.1479 1.95079 -4.37012
head 8.5917 0.304759 -0.82444
rclavicle 3.89618e-014 1.11319e-014
rhumerus -15.1407 23.2297 -88.8149
rradius 45.4446
rwrist -15.2279
rhand -13.9498 -33.3877
rfingers 7.12502
rthumb 12.1775 -63.0132
lclavicle 3.89618e-014 1.11319e-014
lhumerus -31.4324 -14.8826 91.6144
lradius 36.6095
lwrist 23.6756
lhand -22.7679 -13.7802
lfingers 7.12502
lthumb 3.66727 16.168
rfemur -22.8537 -19.532 7.41464
rtibia 38.4217
rfoot -19.1861 -9.26478
rtoes -1.16282
lfemur -23.9449 6.62749 -19.5645
ltibia 34.0335
lfoot -15.6948 6.0498
ltoes -8.88821
381
root -4.42137 16.5315 0.427455 140.635 78.999 130.517
lowerback 27.9013 1.49839 -3.34835
upperback 5.83826 1.45334 -0.85458
thorax -8.93134 0.991178 0.434504
lowerneck -25.5956 0.160878 -2.66924
upperneck 14.1627 2.10984 -4.26715
head 8.61333 0.3777 -0.732122
rclavicle 4.37326e-014 3.65764e-014
rhumerus -15.7171 23.9858 -89.2416
rradius 44.796
rwrist -14.6775
rhand -13.5615 -32.9203
rfingers 7.12502
rthumb 12.5519 -62.5232
lclavicle 4.37326e-014 3.65764e-014
lhumerus -31.2027 -14.6848 91.3332
lradius 36.4176
lwrist 23.4126
lhand -22.7632 -13.9695
lfingers 7.12502
lthumb 3.6718 15.9786
rfemur -23.077 -20.063 6.6107
rtibia 38.4148
rfoot -19.2808 -9.09724
rtoes -1.16157
lfemur -23.917 6.08941 -20.4765
ltibia 33.2773
lfoot -15.5143 6.30692
ltoes -8.66078
382
root -4.41499 16.5383 0.433752 139.795 78.1726 129.193
lowerback 26.6459 1.38839 -3.88019
upperback 5.65084 1.16055 -1.10802
thorax -8.50485 0.848044 0.583888
lowerneck -25.5201 0.200267 -2.66747
upperneck 13.9178 2.15233 -4.28782
head 8.5172 0.403969 -0.732229
rclavicle -1.03368e-014 1.35174e-014
rhumerus -16.4664 24.8625 -89.5851
rradius 44.5267
rwrist -14.2111
rhand -13.1395 -32.5177
rfingers 7.12502
rthumb 12.9587 -62.0953
lclavicle -1.03368e-014 1.35174e-014
lhumerus -31.0383 -14.4417 91.1729
lradius 36.3946
lwrist 23.2497
lhand -22.8015 -13.4056
lfingers 7.12502
lthumb 3.63477 16.5432
rfemur -23.3743 -20.6057 5.86086
rtibia 38.3767
rfoot -19.432 -8.89459
rtoes -0.909823
lfemur -24.0582 5.46804 -21.3697
ltibia 32.6099
lfoot -15.2582 6.67618
ltoes -8.75524
383
root -4.41002 16.5445 0.438971 138.815 77.2556 127.777
lowerback 25.711 1.26177 -4.55302
upperback 5.35547 0.801383 -1.36557
thorax -8.34899 0.678794 0.815833
lowerneck -25.4712 0.203826 -2.63615
upperneck 13.7818 2.15362 -4.36128
head 8.46403 0.403203 -0.761539
rclavicle -1.59028e-015 1.66979e-014
rhumerus -17.1832 25.84 -89.9675
rradius 44.1115
rwrist -13.8016
rhand -12.8119 -31.9428
rfingers 7.12502
rthumb 13.2745 -61.5001
lclavicle -1.59028e-015 1.66979e-014
lhumerus -31.0156 -14.1706 91.0829
lradius 36.253
lwrist 23.3499
lhand -23.1029 -13.0958
lfingers 7.12502
lthumb 3.34377 16.8577
rfemur -23.4313 -21.2971 4.96248
rtibia 37.97
rfoot -19.2719 -8.66748
rtoes -0.511888
lfemur -24.2231 4.71659 -22.3546
ltibia 32.1559
lfoot -15.123 7.03517
ltoes -8.91136
384
root -4.38503 16.567 0.465178 140.136 77.4732 129.468
lowerback 25.2733 1.16897 -4.43439
upperback 5.28345 0.72817 -1.28159
thorax -8.20383 0.634384 0.871327
lowerneck -25.4968 0.174774 -2.45159
upperneck 13.7934 2.07198 -4.46467
head 8.47432 0.362493 -0.838264
rclavicle 2.38542e-015 6.83819e-014
rhumerus -17.7658 26.6684 -90.5146
rradius 43.6139
rwrist -13.3135
rhand -12.7445 -31.6664
rfingers 7.12502
rthumb 13.3394 -61.2194
lclavicle 2.38542e-015 6.83819e-014
lhumerus -30.8938 -13.8186 90.8468
lradius 35.838
lwrist 23.3309
lhand -23.4532 -13.5585
lfingers 7.12502
lthumb 3.0054 16.4001
rfemur -22.5859 -20.9186 5.40107
rtibia 37.3575
rfoot -19.2676 -9.04449
rtoes -0.672618
lfemur -23.5389 4.51775 -21.7205
ltibia 31.7448
lfoot -15.1372 7.15415
ltoes -9.00928
385
root -4.34753 16.6026 0.514588 148.088 79.3589 138.457
lowerback 25.566 1.06012 -2.62948
upperback 5.07082 1.07093 -0.619372
thorax -8.60054 0.754448 0.452738
lowerneck -25.4407 0.0260258 -2.52897
upperneck 14.1241 1.85083 -4.19925
head 8.57121 0.272967 -0.768254
rclavicle 4.77083e-015 1.74931e-014
rhumerus -18.9889 27.0208 -91.4332
rradius 43.3848
rwrist -12.6547
rhand -12.4511 -31.7652
rfingers 7.12502
rthumb 13.6223 -61.2995
lclavicle 4.77083e-015 1.74931e-014
lhumerus -31.2358 -13.3597 90.5585
lradius 35.5122
lwrist 22.8767
lhand -23.3318 -13.4763
lfingers 7.12502
lthumb 3.12266 16.4805
rfemur -21.1347 -19.0068 8.32774
rtibia 36.5056
rfoot -19.5267 -10.3694
rtoes -0.350056
lfemur -22.3826 5.04131 -18.5108
ltibia 31.4132
lfoot -15.0143 7.16186
ltoes -9.57919
386
root -4.32795 16.6154 0.539041 147.648 79.4907 138.209
lowerback 25.0532 1.18 -3.00586
upperback 4.9387 1.1366 -0.472641
thorax -8.49559 0.787582 0.817998
lowerneck -25.3514 -0.402741 -3.14135
upperneck 14.1729 1.39133 -3.75524
head 8.56005 0.0712428 -0.584169
rclavicle 2.10712e-014 5.24792e-014
rhumerus -19.6514 27.2379 -91.6404
rradius 43.1518
rwrist -12.1727
rhand -12.3125 -31.6118
rfingers 7.12502
rthumb 13.7559 -61.1371
lclavicle 2.10712e-014 5.24792e-014
lhumerus -31.2061 -12.9183 90.5681
lradius 35.3049
lwrist 22.2766
lhand -23.0476 -12.8562
lfingers 7.12502
lthumb 3.39713 17.0965
rfemur -20.5004 -18.6704 8.40686
rtibia 35.7338
rfoot -19.2392 -10.6349
rtoes -0.203605
lfemur -21.879 5.06766 -18.3685
ltibia 31.0387
lfoot -14.9231 7.4121
ltoes -10.2586
387
root -4.31242 16.6245 0.56377 147.779 79.6963 138.475
lowerback 24.3584 1.24616 -3.15818
upperback 4.88652 1.20153 -0.369047
thorax -8.20312 0.813564 1.01152
lowerneck -25.3322 -0.887789 -3.63667
upperneck 14.1923 0.805557 -3.26728
head 8.5548 -0.179076 -0.422006
rclavicle -1.19271e-014 1.98785e-014
rhumerus -20.0395 27.4415 -91.8072
rradius 42.8755
rwrist -11.8418
rhand -12.3365 -31.5866
rfingers 7.12502
rthumb 13.7327 -61.1135
lclavicle -1.19271e-014 1.98785e-014
lhumerus -31.1185 -12.7243 90.5248
lradius 35.1127
lwrist 21.9967
lhand -22.983 -12.7859
lfingers 7.12502
lthumb 3.45954 17.1658
rfemur -20.0174 -18.3874 8.66017
rtibia 35.0607
rfoot -19.0698 -10.7365
rtoes -0.511996
lfemur -21.4388 5.00044 -18.0749
ltibia 30.6401
lfoot -14.9131 7.67697
ltoes -10.3016
388
root -4.3012 16.6307 0.589644 147.788 79.8495 138.649
lowerback 23.9169 1.21368 -3.29549
upperback 4.77431 1.1282 -0.322557
thorax -8.09936 0.775496 1.17037
lowerneck -25.4103 -1.28697 -4.01236
upperneck 14.2648 0.298048 -2.77058
head 8.58916 -0.387393 -0.265603
rclavicle 4.05521e-014 2.22639e-014
rhumerus -20.3957 27.7987 -92.0974
rradius 42.5792
rwrist -11.6485
rhand -12.4585 -31.548
rfingers 7.12502
rthumb 13.6151 -61.0828
lclavicle 4.05521e-014 2.22639e-014
lhumerus -31.0907 -12.4796 90.412
lradius 34.8721
lwrist 21.976
lhand -23.0403 -12.849
lfingers 7.12502
lthumb 3.40417 17.1035
rfemur -19.665 -18.1756 8.85919
rtibia 34.7401
rfoot -19.1394 -10.7623
rtoes -0.690374
lfemur -20.9277 4.86874 -17.8101
ltibia 30.0828
lfoot -14.8208 7.98237
ltoes -10.1682
389
root -4.29084 16.6347 0.612337 146.965 79.937 138.044
lowerback 23.6005 1.16824 -3.60775
upperback 4.6707 0.995417 -0.270178
thorax -8.04846 0.714988 1.45073
lowerneck -25.4605 -1.59903 -4.29786
upperneck 14.2983 -0.0839692 -2.46696
head 8.61002 -0.550998 -0.171582
rclavicle -1.19271e-015 4.69132e-014
rhumerus -20.7388 28.1766 -92.3174
rradius 42.3686
rwrist -11.6121
rhand -12.9449 -31.1962
rfingers 7.12502
rthumb 13.1463 -60.7618
lclavicle -1.19271e-015 4.69132e-014
lhumerus -31.1707 -12.1071 90.3609
lradius 34.7947
lwrist 22.0344
lhand -23.1419 -12.8097
lfingers 7.12502
lthumb 3.30602 17.1444
rfemur -19.255 -17.9998 8.84489
rtibia 34.4373
rfoot -19.1976 -10.7441
rtoes -0.024108
lfemur -20.3421 4.80098 -17.7137
ltibia 29.5361
lfoot -14.7594 8.20083
ltoes -9.92593
390
root -4.27864 16.6386 0.632369 145.893 80.0897 137.171
lowerback 23.1703 1.13765 -3.85106
upperback 4.60076 0.903147 -0.259759
thorax -7.89971 0.670198 1.63419
lowerneck -25.3709 -1.84504 -4.31632
upperneck 14.2666 -0.439859 -2.3643
head 8.58656 -0.707203 -0.183958
rclavicle -2.38542e-015 -1.27222e-014
rhumerus -21.0483 28.1757 -92.5397
rradius 42.1973
rwrist -11.5548
rhand -13.2352 -30.9791
rfingers 7.12502
rthumb 12.8665 -60.5625
lclavicle -2.38542e-015 -1.27222e-014
lhumerus -31.3379 -11.8318 90.259
lradius 34.916
lwrist 21.9375
lhand -23.119 -12.6643
lfingers 7.12502
lthumb 3.32819 17.2895
rfemur -18.8684 -17.7963 8.8343
rtibia 34.1351
rfoot -19.1921 -10.6689
rtoes 1.02863
lfemur -19.7624 4.80498 -17.6192
ltibia 29.0112
lfoot -14.6817 8.43677
ltoes -9.79931
391
root -4.26615 16.6464 0.652894 145.219 80.3776 136.681
lowerback 22.7738 1.12258 -3.9211
upperback 4.51555 0.872431 -0.226174
thorax -7.78653 0.651001 1.72441
lowerneck -25.4036 -2.12979 -4.34125
upperneck 14.4202 -0.841266 -2.22459
head 8.6481 -0.8862 -0.191416
rclavicle 4.77083e-015 -3.97569e-015
rhumerus -21.2356 27.833 -92.6914
rradius 41.9729
rwrist -11.4829
rhand -13.1758 -30.699
rfingers 7.12502
rthumb 12.9238 -60.2788
lclavicle 4.77083e-015 -3.97569e-015
lhumerus -31.4693 -11.7324 90.2052
lradius 34.9112
lwrist 21.8354
lhand -23.1894 -12.2203
lfingers 7.12502
lthumb 3.2602 17.7346
rfemur -18.5401 -17.5045 9.00758
rtibia 33.8342
rfoot -19.111 -10.697
rtoes 1.12961
lfemur -19.2006 4.74738 -17.3687
ltibia 28.5089
lfoot -14.5691 8.82601
ltoes -10.1256
392
root -4.25582 16.6572 0.673659 144.445 80.6682 136.063
lowerback 22.4496 1.10442 -3.98925
upperback 4.40678 0.836955 -0.158191
thorax -7.73648 0.630791 1.85107
lowerneck -25.5286 -2.44357 -4.30814
upperneck 14.6597 -1.2439 -2.31286
head 8.75454 -1.08922 -0.289017
rclavicle -1.55052e-014 -2.38542e-015
rhumerus -21.4656 27.4225 -92.7252
rradius 41.9835
rwrist -11.4853
rhand -12.9402 -30.6165
rfingers 7.12502
rthumb 13.1508 -60.1818
lclavicle -1.55052e-014 -2.38542e-015
lhumerus -31.5371 -11.6144 90.2677
lradius 34.5955
lwrist 21.7058
lhand -23.4411 -12.3712
lfingers 7.12502
lthumb 3.01709 17.5872
rfemur -18.2823 -17.1227 9.18765
rtibia 33.5512
rfoot -19.0016 -10.8397
rtoes 0.639643
lfemur -18.6648 4.65929 -17.1399
ltibia 28.0207
lfoot -14.4788 9.23174
ltoes -10.3661
